<svg id="visual" viewBox="0 0 960 540" width="960" height="540" xmlns="http://www.w3.org/2000/svg" xmlns:xlink="http://www.w3.org/1999/xlink" version="1.1"><rect x="0" y="0" width="960" height="540" fill="#001220"></rect><defs><linearGradient id="grad1_0" x1="43.8%" y1="0%" x2="100%" y2="100%"><stop offset="14.444444444444446%" stop-color="#fbae3c" stop-opacity="1"></stop><stop offset="85.55555555555554%" stop-color="#fbae3c" stop-opacity="1"></stop></linearGradient></defs><defs><linearGradient id="grad1_1" x1="43.8%" y1="0%" x2="100%" y2="100%"><stop offset="14.444444444444446%" stop-color="#fbae3c" stop-opacity="1"></stop><stop offset="85.55555555555554%" stop-color="#96446e" stop-opacity="1"></stop></linearGradient></defs><defs><linearGradient id="grad1_2" x1="43.8%" y1="0%" x2="100%" y2="100%"><stop offset="14.444444444444446%" stop-color="#001220" stop-opacity="1"></stop><stop offset="85.55555555555554%" stop-color="#96446e" stop-opacity="1"></stop></linearGradient></defs><defs><linearGradient id="grad2_0" x1="0%" y1="0%" x2="56.3%" y2="100%"><stop offset="14.444444444444446%" stop-color="#fbae3c" stop-opacity="1"></stop><stop offset="85.55555555555554%" stop-color="#fbae3c" stop-opacity="1"></stop></linearGradient></defs><defs><linearGradient id="grad2_1" x1="0%" y1="0%" x2="56.3%" y2="100%"><stop offset="14.444444444444446%" stop-color="#96446e" stop-opacity="1"></stop><stop offset="85.55555555555554%" stop-color="#fbae3c" stop-opacity="1"></stop></linearGradient></defs><defs><linearGradient id="grad2_2" x1="0%" y1="0%" x2="56.3%" y2="100%"><stop offset="14.444444444444446%" stop-color="#96446e" stop-opacity="1"></stop><stop offset="85.55555555555554%" stop-color="#001220" stop-opacity="1"></stop></linearGradient></defs><g transform="translate(960, 0)"><path d="M0 189C-18.6 174.2 -37.2 159.3 -63.5 153.4C-89.9 147.4 -123.9 150.2 -133.6 133.6C-143.4 117 -128.8 81 -134 55.5C-139.1 30 -164.1 15 -189 0L0 0Z" fill="#3d3056"></path><path d="M0 126C-12.4 116.1 -24.8 106.2 -42.4 102.2C-59.9 98.3 -82.6 100.2 -89.1 89.1C-95.6 78 -85.9 54 -89.3 37C-92.8 20 -109.4 10 -126 0L0 0Z" fill="#e1685e"></path><path d="M0 63C-6.2 58.1 -12.4 53.1 -21.2 51.1C-30 49.1 -41.3 50.1 -44.5 44.5C-47.8 39 -42.9 27 -44.7 18.5C-46.4 10 -54.7 5 -63 0L0 0Z" fill="#fbae3c"></path></g><g transform="translate(0, 540)"><path d="M0 -189C17.5 -164.4 35.1 -139.9 53.2 -128.4C71.3 -117 89.9 -118.6 112.4 -112.4C134.9 -106.3 161.2 -92.4 174.6 -72.3C188 -52.3 188.5 -26.1 189 0L0 0Z" fill="#3d3056"></path><path d="M0 -126C11.7 -109.6 23.4 -93.3 35.5 -85.6C47.5 -78 60 -79.1 75 -75C89.9 -70.9 107.5 -61.6 116.4 -48.2C125.3 -34.9 125.7 -17.4 126 0L0 0Z" fill="#e1685e"></path><path d="M0 -63C5.8 -54.8 11.7 -46.6 17.7 -42.8C23.8 -39 30 -39.5 37.5 -37.5C45 -35.4 53.7 -30.8 58.2 -24.1C62.7 -17.4 62.8 -8.7 63 0L0 0Z" fill="#fbae3c"></path></g></svg>